<svg width="20" height="20" viewBox="0 0 20 20" fill="none" xmlns="http://www.w3.org/2000/svg">
<circle cx="10" cy="10" r="10" fill="#2F80ED"/>
<g clip-path="url(#clip0)">
<path fill-rule="evenodd" clip-rule="evenodd" d="M13.136 5.72264C13.3143 5.34876 13.1558 4.90114 12.7819 4.72285C11.7546 4.23295 10.6079 4.04938 9.47901 4.1941C8.35013 4.33882 7.28683 4.80569 6.41633 5.53888C5.54583 6.27206 4.90498 7.2405 4.57045 8.32835C4.23592 9.4162 4.22187 10.5774 4.52998 11.673C4.64212 12.0718 5.05627 12.3041 5.45502 12.192C5.85376 12.0798 6.0861 11.6657 5.97397 11.2669C5.74388 10.4488 5.75437 9.58162 6.00419 8.76925C6.25401 7.95688 6.73257 7.23368 7.38263 6.68616C8.03269 6.13864 8.82673 5.79 9.66975 5.68193C10.5128 5.57386 11.3691 5.71094 12.1362 6.07678C12.5101 6.25507 12.9577 6.09652 13.136 5.72264ZM11.8068 15.0541C11.74 14.6453 11.3545 14.3681 10.9457 14.4349C9.78788 14.6241 8.60233 14.3457 7.64984 13.6608C7.31354 13.419 6.84488 13.4956 6.60307 13.8319C6.36125 14.1682 6.43785 14.6368 6.77415 14.8787C8.04964 15.7958 9.63721 16.1687 11.1876 15.9153C11.5964 15.8485 11.8736 15.4629 11.8068 15.0541ZM13.3791 13.1781C13.6702 12.8834 14.145 12.8805 14.4397 13.1716C14.7344 13.4627 14.7373 13.9376 14.4462 14.2323C14.4285 14.2501 14.4107 14.2679 14.3928 14.2856C14.098 14.5765 13.6231 14.5734 13.3322 14.2785C13.0413 13.9837 13.0444 13.5089 13.3392 13.2179C13.3526 13.2047 13.3659 13.1914 13.3791 13.1781Z" fill="white"/>
</g>
<defs>
<clipPath id="clip0">
<rect width="12" height="12" fill="white" transform="translate(4 4)"/>
</clipPath>
</defs>
</svg>
